<svg width="60" height="60" viewBox="0 0 60 60" fill="none" xmlns="http://www.w3.org/2000/svg">
<circle cx="30" cy="30" r="30" fill="#FAE100"/>
<path d="M29.9932 15.4286C20.0571 15.4286 12 21.5956 12 29.206C12 34.1265 15.3661 38.4368 20.4356 40.884L18.6106 47.215C18.6106 47.215 18.5768 47.5102 18.7728 47.6218C18.9688 47.7333 19.2054 47.648 19.2054 47.648C19.7732 47.5693 25.7619 43.482 26.8096 42.7734C27.8438 42.9178 28.9185 42.9899 30.0068 42.9899C39.9429 42.9899 48 36.8229 48 29.2125C48 21.6022 39.9294 15.4286 29.9932 15.4286Z" fill="#371C1D"/>
<path d="M20.0435 34.0086C19.469 34.0086 19.0026 33.5756 19.0026 33.0442V27.0543H17.3803C16.8193 27.0543 16.3665 26.6147 16.3665 26.0702C16.3665 25.5257 16.8261 25.0861 17.3803 25.0861H22.6999C23.2609 25.0861 23.7138 25.5257 23.7138 26.0702C23.7138 26.6147 23.2542 27.0543 22.6999 27.0543H21.0777V33.0442C21.0777 33.569 20.6045 34.0086 20.0368 34.0086H20.0435ZM29.1483 33.9955C28.7157 33.9955 28.3845 33.8249 28.2831 33.5493L27.7694 32.2372H24.606L24.0923 33.5493C23.9909 33.8249 23.6597 33.9955 23.2271 33.9955C22.9973 33.9955 22.7743 33.9496 22.5647 33.8643C22.2808 33.733 22.0037 33.3853 22.3214 32.434L24.8021 26.0899C24.9778 25.6044 25.5118 25.1058 26.1877 25.0927C26.8636 25.0795 27.4044 25.6044 27.5734 26.0899L30.054 32.434C30.3717 33.3853 30.0946 33.7462 29.8107 33.8643C29.6079 33.9561 29.3781 33.9955 29.1483 33.9955ZM27.2219 30.4527L26.1877 27.5923L25.1535 30.4527H27.2219ZM31.7236 33.8643C31.1828 33.8643 30.73 33.4509 30.73 32.9458V26.0899C30.73 25.5322 31.2031 25.0795 31.7912 25.0795C32.3792 25.0795 32.8524 25.5388 32.8524 26.0899V32.0076H35.0559C35.5966 32.0076 36.0495 32.4209 36.0495 32.9261C36.0495 33.4313 35.6034 33.8446 35.0559 33.8446L31.7236 33.8643ZM36.4483 32.9851V26.0964C36.4483 25.5388 36.9215 25.0861 37.4892 25.0861C38.057 25.0861 38.5302 25.5453 38.5302 26.0964V28.2615L41.4367 25.4404C41.7566 25.1298 42.3615 25.157 42.7277 25.5125C43.0717 25.8465 43.1612 26.4109 42.8021 26.7656L40.4228 29.0619L42.9778 32.3422C43.3211 32.7687 43.2378 33.4331 42.775 33.7462C42.3188 34.0742 41.6485 33.9649 41.3218 33.5493L38.8884 30.4199L38.5302 30.7676V32.9655C38.5302 34.2746 36.4483 34.325 36.4483 32.9851Z" fill="#F7E600"/>
</svg>
